<svg xmlns="http://www.w3.org/2000/svg" width="21.613" height="21.654" viewBox="0 0 21.613 21.654">
  <path id="Icon_feather-phone-call" data-name="Icon feather-phone-call" d="M23.778,18.462v3.109a2.073,2.073,0,0,1-2.259,2.073,20.509,20.509,0,0,1-8.943-3.182,20.208,20.208,0,0,1-6.218-6.218A20.509,20.509,0,0,1,3.176,5.259,2.073,2.073,0,0,1,5.239,3H8.347A2.073,2.073,0,0,1,10.42,4.782a13.306,13.306,0,0,0,.725,2.912,2.073,2.073,0,0,1-.466,2.187L9.363,11.2a16.581,16.581,0,0,0,6.218,6.218L16.9,16.1a2.073,2.073,0,0,1,2.187-.466A13.306,13.306,0,0,0,22,16.358,2.073,2.073,0,0,1,23.778,18.462Z" transform="translate(-2.667 -2.5)" fill="none" stroke="#fff" stroke-linecap="round" stroke-linejoin="round" stroke-width="1"/>
</svg>
