<svg xmlns="http://www.w3.org/2000/svg" width="736.335" height="507.374" viewBox="0 0 736.335 507.374">
  <path id="Path_3367" data-name="Path 3367" d="M648.947,248.521c38.506,22.271,92.731-10.27,104.327-37.139,16.266-37.717-15.992-59.35-52.624-58.813-3.413.425-6.806.83-10.219,1.246a112.394,112.394,0,0,0-20.732,6.492c-21.41,9.358-56.888,41.079-37.149,73.356C636.4,239.922,642.577,244.814,648.947,248.521ZM87.825,621.482c7.221-.506,14.452-1.043,21.663-1.539,4.335-.729,8.659-1.458,13-2.188,20.478,4.912,41.413,10.432,62.519,16.1,29.492,7.961,61,12.609,92.548,18.879q18.731,2.188,37.443,4.345c16.326,3.261,52.057,4.061,68.707.618,13.156-2.714,26.039-3.97,38.071-7.748a459.729,459.729,0,0,0,102.757-46.1c10.472-6.36,20.418-12.873,30.323-19.517q6.684-4.633,13.308-9.277h.618q-13.6-.456-27.234-.922c-2.35,1.954-4.74,3.909-7.1,5.874q-8.37,5.56-16.721,11.131c-16.549,10.29-35.9,17.947-57.263,23.223-54.711,13.541-125.808-.911-173.308-12.69q-17.972-4.193-35.913-8.346l-18.888-4.649c-.2-.111-.425-.2-.618-.314q20.752-6.047,41.484-12.063c24.56-7.656,48.948-14.533,72.11-23.507,20.1-7.829,39.975-14.047,59.43-22.312,54.123-22.98,105.005-48.644,148.869-81.7,17.39-13.126,34.87-27.5,48.279-44.573,11.1-14.108,21.3-29,28.469-47.034,2.947-7.414,4.8-15.718,6.512-24.145,5.307-26.434-3.028-50.468-13.612-65-23.983-32.886-69.052-48.25-126.6-47.358-2.9.112-5.773.2-8.659.314q-14.538,1.367-29.1,2.775c-24.823,4.831-48.219,8.8-70.571,15.789-65.244,20.388-123.965,47.206-174.25,82.644-14.311,10.077-27.406,21.421-40.866,32.177-24.155,19.334-44.35,44.026-56.949,74.906-4.132,10.148-8.639,26.343-5.884,41.484,2.552,14.027,6.806,24.49,13.936,33.736,18.848,24.408,68.1,39.023,113.9,30.333,47.388-8.983,88.173-23.547,123.813-44.573q16.073-10.209,32.2-20.428,7.11-5.271,14.23-10.523c.1-.192.2-.405.3-.628H384.023q-4.953,4.026-9.895,8.062a140.382,140.382,0,0,1-25.715,13.916c-4.446,1.9-9.419,3.838-14.777,5.773-5.378,1.934-11.151,3.828-17.258,5.671-6.32,1.762-13.136,3.636-20.225,5.439-7.11,1.823-14.5,3.6-22.1,5.206-12.67,1.4-25.168,3.494-37.574,4.4-4.142.3-8.264.466-12.386.435-29.9,1.033-48.523-13.2-55.9-32.835a56.161,56.161,0,0,1-3.069-12.356c-4.1-24.277,4.9-45.606,19.486-64.961,2.917-3.879,6.056-7.687,9.358-11.394,14.625-19.243,32.986-34.374,53.445-47.277,4.082-2.582,8.264-5.084,12.508-7.515a254.224,254.224,0,0,1,53.647-25.259c9.095-3.129,17.612-7.9,27.041-10.432,18.311-6.8,36.106-8.72,52.746-11.029,3.342-.456,6.654-.851,9.966-1.2,48.239-9.409,129.262-2.036,129.677,69.265a119.762,119.762,0,0,1-2.39,14.625,115.012,115.012,0,0,1-3.6,12.548c-13.247,37.757-38.769,65.234-67.472,87.586-52.594,40.957-109.553,70.187-181.066,92.873-16.964,5.358-34.424,9.844-52.624,14.533-7.1,1.762-14.24,3.525-21.339,5.257q-38.086-8.341-76.151-16.7c-7.535-1.367-15.07-2.694-22.6-4.031Q63.842,584.784,21.9,610.331c-4.223-1.4,13.743,4.557,18.564,5.9C53.116,619.72,70.9,623.943,87.825,621.482Z" transform="translate(-21.265 -152.559)" fill="#fff" fill-rule="evenodd" opacity="0.03"/>
</svg>
