<svg xmlns="http://www.w3.org/2000/svg" width="22.91" height="22.955" viewBox="0 0 22.91 22.955">
  <path id="Icon_feather-phone" data-name="Icon feather-phone" d="M24.077,18.687v3.154a2.1,2.1,0,0,1-2.292,2.1,20.806,20.806,0,0,1-9.073-3.228A20.5,20.5,0,0,1,6.4,14.408,20.808,20.808,0,0,1,3.176,5.292,2.1,2.1,0,0,1,5.269,3H8.423a2.1,2.1,0,0,1,2.1,1.808,13.5,13.5,0,0,0,.736,2.954,2.1,2.1,0,0,1-.473,2.218L9.453,11.317a16.822,16.822,0,0,0,6.308,6.308L17.1,16.29a2.1,2.1,0,0,1,2.218-.473,13.5,13.5,0,0,0,2.954.736,2.1,2.1,0,0,1,1.808,2.134Z" transform="translate(-2.168 -2)" fill="none" stroke="#7893df" stroke-linecap="round" stroke-linejoin="round" stroke-width="2"/>
</svg>
