<svg id="Group_911" data-name="Group 911" xmlns="http://www.w3.org/2000/svg" width="22" height="23" viewBox="0 0 22 23">
  <rect id="Rectangle_34" data-name="Rectangle 34" width="22" height="23" rx="11" fill="#fff"/>
  <path id="Path_672" data-name="Path 672" d="M515.337,83.033h2.188v7.034h-2.188Zm1.1-.958A1.271,1.271,0,1,1,517.7,80.8v0a1.267,1.267,0,0,1-1.262,1.271Zm9.282,7.992h-2.188V86.649c0-.815,0-1.842-1.133-1.842s-1.313.866-1.313,1.787v3.478H518.9V83.033h2.087V84h.028a2.3,2.3,0,0,1,2.073-1.138c2.211,0,2.621,1.46,2.621,3.353Z" transform="translate(-509.518 -72.89)" fill="#0077b5"/>
</svg>
